<svg id="Layer_1" data-name="Layer 1" xmlns="http://www.w3.org/2000/svg" viewBox="0 0 417.5 53.59"><defs><style>.cls-1{fill:#fc4c02;}.cls-2{fill:#101820;}</style></defs><title>curvature_logo</title><path class="cls-1" d="M18.65,25.56V10H0V25.56a28,28,0,0,0,28,28H42.34V34.9H28a9.34,9.34,0,0,1-9.32-9.34"/><path class="cls-2" d="M31.67,31.38A10.69,10.69,0,1,0,21,20.68,10.68,10.68,0,0,0,31.67,31.38"/><path class="cls-2" d="M56.42,31.79a21.56,21.56,0,0,1,40-11.09L85.76,26.9a8.44,8.44,0,0,0-7.91-4.56c-5.3,0-9.21,3.83-9.21,9.46s3.91,9.45,9.21,9.45c3.58,0,6.6-1.71,7.91-4.56l10.68,6.11A20.81,20.81,0,0,1,78,53.31,21.12,21.12,0,0,1,56.42,31.79Z"/><path class="cls-2" d="M140.29,11.41V52.17H128.06V48.34c-2.2,3-6.28,5-11.66,5-8.23,0-15.24-5.87-15.24-16.88v-25h12.23V34.64c0,5.05,3.18,7.42,7.09,7.42,4.48,0,7.58-2.61,7.58-8.39V11.41h12.23Z"/><path class="cls-2" d="M172,10.6V24.45c-5.05-.81-12.23,1.22-12.23,9.29V52.17H147.56V11.41h12.23v7.26C161.42,13.21,166.88,10.6,172,10.6Z"/><path class="cls-2" d="M218.56,11.41L203.48,52.17H189.63L174.55,11.41h13.53l8.48,25.84L205,11.41h13.53Z"/><path class="cls-2" d="M263.23,11.41V52.17H251V48.34c-2.69,3.1-6.68,5-12.15,5-10.68,0-19.48-9.38-19.48-21.52s8.8-21.52,19.48-21.52c5.46,0,9.46,1.87,12.15,5V11.41h12.23ZM251,31.79c0-6.11-4.08-9.95-9.7-9.95s-9.7,3.83-9.7,9.95,4.07,9.94,9.7,9.94S251,37.9,251,31.79Z"/><path class="cls-2" d="M287.69,23.15V37.58c0,3.5,3,3.83,8.4,3.5V52.17c-16,1.63-20.62-3.18-20.62-14.59V23.15h-6.52V11.41h6.52V3.67L287.69,0V11.41h8.4V23.15h-8.4Z"/><path class="cls-2" d="M340.95,11.41V52.17H328.72V48.34c-2.2,3-6.28,5-11.66,5-8.23,0-15.24-5.87-15.24-16.88v-25H314V34.64c0,5.05,3.18,7.42,7.09,7.42,4.48,0,7.58-2.61,7.58-8.39V11.41h12.23Z"/><path class="cls-2" d="M372.67,10.6V24.45c-5.05-.81-12.23,1.22-12.23,9.29V52.17H348.22V11.41h12.23v7.26C362.07,13.21,367.54,10.6,372.67,10.6Z"/><path class="cls-2" d="M397.86,42.39a10.65,10.65,0,0,0,7.83-3.1l9.78,5.62c-4,5.54-10,8.4-17.77,8.4-13.94,0-22.58-9.38-22.58-21.52s8.8-21.52,21.68-21.52c11.9,0,20.7,9.21,20.7,21.52a23.75,23.75,0,0,1-.49,4.89H388.08C389.63,40.92,393.38,42.39,397.86,42.39Zm7.5-14.84c-1.3-4.73-5-6.44-8.64-6.44-4.65,0-7.74,2.28-8.89,6.44h17.53Z"/></svg>